<?xml version="1.0" encoding="utf-8"?>
<!-- Svg Vector Icons : http://www.onlinewebfonts.com/icon -->
<!DOCTYPE svg PUBLIC "-//W3C//DTD SVG 1.1//EN" "http://www.w3.org/Graphics/SVG/1.1/DTD/svg11.dtd">
<svg version="1.1" xmlns="http://www.w3.org/2000/svg" xmlns:xlink="http://www.w3.org/1999/xlink" x="0px" y="0px" viewBox="0 0 256 256" enable-background="new 0 0 256 256" xml:space="preserve">
<metadata> Svg Vector Icons : http://www.onlinewebfonts.com/icon </metadata>
<g><g><g><path fill="#ff0000" d="M184.2,12.2c-24.8,10.2-48.2,29.7-64.5,53.6l-2.5,3.8l-7.6-6.5c-4.2-3.6-8.1-6.9-8.9-7.4c-0.9-0.6-2.3-0.8-4-0.8c-3,0-5,1.1-6.8,3.7c-1.4,2-1.5,6.1-0.2,8.2c0.5,0.8,6.2,7.5,12.6,15C115,96.4,115.7,97,120.1,97c5,0,7-1.9,12.7-11.6c15.5-26.4,33.8-46.8,57.2-64.1c2.8-2.1,5.4-4.3,5.7-4.8c0.9-1.7,0.6-3.8-0.9-5.2C192.9,9.3,190.7,9.5,184.2,12.2z"/><path fill="#ff0000" d="M65.2,19.3c-2.1,0.6-3.6,1.9-4.6,3.9c-0.9,1.9-0.9,2.5-0.9,54.3v52.3l1.1,2c0.7,1.4,1.7,2.4,3.1,3.1c1.9,1,2.4,1.1,13.4,1.1h11.4l0.3-6.4c0.1-3.5,0.4-7,0.6-7.9l0.3-1.5h-7.2h-7.2V77.3V34.5h26.1h26.1l2.3-2.4c2.7-2.8,8.5-7.7,12.9-11l3.1-2.4l-39.7,0C84.3,18.8,65.9,19,65.2,19.3z"/><path fill="#ff0000" d="M171.3,56.7c-2.9,3.1-6.4,6.9-7.7,8.5l-2.5,2.8v26v26.1h-5.6c-5.1,0-5.6,0-5.3,0.8c0.5,1.6,1.2,7.7,1.2,11c0,2.6,0.1,3.4,0.7,3.6c0.4,0.1,4.7,0.3,9.5,0.3c6.3,0,9.2-0.2,10.3-0.6c2.3-0.9,4.4-3.6,4.7-5.9c0.1-1.1,0.2-19.2,0.1-40.1l-0.1-38.1L171.3,56.7z"/><path fill="#ff0000" d="M116.3,108.1c-6.6,1.4-11.3,5.9-13.7,13.1c-0.9,2.6-1,4.1-1.2,19.9l-0.2,17l-1.4,0.3c-2.6,0.6-6.9,3.1-9.4,5.6c-1.5,1.5-3.1,3.8-4.2,6l-1.8,3.6l-0.1,14.9c-0.1,11.9,0,15.4,0.5,17.2c0.6,2.1,19.9,33.6,22.3,36.5c0.7,0.8,2.3,2,3.6,2.6l2.4,1.2h27.1h27.1l2.4-1.1c3.8-1.8,5.5-4.2,7.6-10.9c6.5-20.9,14.3-48.8,14.7-52.5c0.1-1.5,0-4.3-0.3-6.2c-1.5-9.9-8.7-16.9-18.5-18.2c-1.9-0.2-3-0.7-4.9-2.2c-3.4-2.7-6.5-4-11-4.6c-3.4-0.5-4.1-0.7-5.5-2.1c-2-1.9-6.3-4-9.8-4.7l-2.6-0.6l-0.3-9.6c-0.2-8.1-0.4-10.1-1.2-12.7c-1.9-5.7-5.3-9.5-10.4-11.4C124.7,108,119.1,107.5,116.3,108.1z M125,122.7c0.9,0.9,1.5,2,1.8,3.7c0.2,1.3,0.6,14.7,0.7,29.8c0.2,23.7,0.3,27.6,1,28.6c1.3,2.1,4.7,2,6.1-0.1c0.7-1.1,0.7-1.9-0.2-13.5c-0.5-6.8-1-12.7-1-13.1c0-0.9,2.3-1.8,5-1.8c2.2,0,3.5,0.5,5.1,2l1.1,1l-0.4,12.3l-0.3,12.3l1.1,1c1.5,1.4,3.8,1.3,5.3-0.1l1.2-1.1l-0.3-8.9c-0.1-4.9-0.3-9.3-0.4-9.7c-0.4-1.9,5.1-2.5,8.1-0.8c3,1.7,3.1,2,1.6,11.6c-0.7,4.7-1.3,9.2-1.3,10c-0.1,2.7,2.7,4.6,5.5,3.6c1.5-0.6,2-2.6,2.3-10.3c0.3-7.3,0.4-7.6,1.4-8.3c1.5-0.9,5.4-0.6,7,0.6c0.7,0.5,1.7,1.6,2.3,2.5c1.9,2.9,1.6,4.8-5.2,30.7c-3.5,13-6.6,24.8-7,26.1l-0.7,2.4l-24.5-0.1l-24.6-0.1l-9.2-15.5l-9.2-15.5v-12.3c0-6.8,0.2-13,0.5-13.9c1-3.5,5-5.8,8.6-4.9l1.2,0.3l-0.4,13l-0.3,13l1.1,1.2c1.3,1.4,4.1,1.5,5.3,0.2c0.8-0.9,0.8-2.9,0.9-36.6c0-34.1,0.1-35.9,0.9-37.5c1.2-2.4,2.7-3.1,6-3C123.1,121.3,123.8,121.6,125,122.7z"/></g></g></g>
</svg>
